<?xml version="1.0" encoding="UTF-8" standalone="no"?>
<svg
   width="449.5665"
   height="131.27995"
   viewBox="0 0 449.5665 131.27995"
   version="1.1"
   id="svg51"
   sodipodi:docname="Seltzport with icon-bw.inkscape.svg"
   inkscape:version="1.2.1 (9c6d41e410, 2022-07-14)"
   inkscape:export-filename="Seltzport with icon.svg"
   inkscape:export-xdpi="96"
   inkscape:export-ydpi="96"
   xmlns:inkscape="http://www.inkscape.org/namespaces/inkscape"
   xmlns:sodipodi="http://sodipodi.sourceforge.net/DTD/sodipodi-0.dtd"
   xmlns:xlink="http://www.w3.org/1999/xlink"
   xmlns="http://www.w3.org/2000/svg"
   xmlns:svg="http://www.w3.org/2000/svg">
  <defs
     id="defs55">
    <linearGradient
       inkscape:collect="always"
       id="linearGradient1855">
      <stop
         style="stop-color:#4d4d4d;stop-opacity:1;"
         offset="0"
         id="stop1851" />
      <stop
         style="stop-color:#000000;stop-opacity:1"
         offset="1"
         id="stop1853" />
    </linearGradient>
    <linearGradient
       inkscape:collect="always"
       id="linearGradient385">
      <stop
         style="stop-color:#050505;stop-opacity:1;"
         offset="0"
         id="stop381" />
      <stop
         style="stop-color:#606060;stop-opacity:1;"
         offset="1"
         id="stop383" />
    </linearGradient>
    <linearGradient
       inkscape:collect="always"
       xlink:href="#linearGradient385"
       id="linearGradient387"
       x1="106.19444"
       y1="312.08685"
       x2="109.99562"
       y2="135.53096"
       gradientUnits="userSpaceOnUse"
       gradientTransform="matrix(0.80081634,0,0,0.80081634,-10.44118,-120.51743)" />
    <linearGradient
       inkscape:collect="always"
       xlink:href="#linearGradient1855"
       id="linearGradient1857"
       x1="355.76486"
       y1="189.61481"
       x2="352.25446"
       y2="280.18088"
       gradientUnits="userSpaceOnUse"
       gradientTransform="matrix(1.0643403,0,0,1.0643403,-64.531268,-176.6896)" />
  </defs>
  <sodipodi:namedview
     id="namedview53"
     pagecolor="#ffffff"
     bordercolor="#000000"
     borderopacity="0.25"
     inkscape:showpageshadow="2"
     inkscape:pageopacity="0.0"
     inkscape:pagecheckerboard="0"
     inkscape:deskcolor="#d1d1d1"
     showgrid="false"
     inkscape:zoom="1.9915817"
     inkscape:cx="122.26463"
     inkscape:cy="44.688099"
     inkscape:window-width="1920"
     inkscape:window-height="1011"
     inkscape:window-x="0"
     inkscape:window-y="0"
     inkscape:window-maximized="1"
     inkscape:current-layer="svg51" />
  <path
     fill="var(--ci-primary-color, currentColor)"
     d="M 73.594595,2.4243088e-4 A 73.595605,65.7158 0 0 0 21.555152,112.18368 73.595605,65.7158 0 0 0 125.63435,19.247862 73.114604,65.2863 0 0 0 73.594595,2.4243088e-4 Z M 70.549895,8.8544324 39.564393,56.983502 22.961557,31.166512 A 63.703716,56.883026 0 0 1 70.550815,8.8544324 Z m 17.35693,34.8859496 14.120035,21.80814 -14.208605,22.18657 H 59.339565 L 45.235838,65.804472 59.441055,43.740382 Z m -70.911648,-4.20521 30.996881,48.19992 H 14.804839 a 63.692644,56.87314 0 0 1 2.190338,-48.19992 z m 3.011176,56.98711 H 82.192025 L 65.740195,122.21048 A 63.841496,57.006054 0 0 1 20.006353,96.522832 Z M 76.846275,122.56941 107.72721,74.351102 124.38633,100.08049 A 63.713249,56.891539 0 0 1 76.846275,122.56996 Z M 130.31857,91.684902 99.275555,43.740382 h 33.129095 a 63.702793,56.882202 0 0 1 -2.08608,47.94452 z M 65.099885,34.952652 81.653505,9.2411024 A 63.849185,57.012919 0 0 1 127.21544,34.952652 Z"
     class="ci-primary"
     id="path49"
     style="fill:url(#linearGradient387);fill-opacity:1;stroke-width:0.290615" />
  <g
     aria-label="SeltzPort"
     id="text269"
     style="font-size:90.4762px;fill:url(#linearGradient1857);stroke-width:1.41369">
    <path
       d="m 196.64842,43.338767 q -1.988,-2.385603 -5.21299,-3.401693 -3.1808,-1.060268 -6.53832,-1.060268 -4.99209,0 -9.54241,2.032181 -4.50614,2.03218 -7.33352,5.964007 -2.82738,3.887649 -2.82738,9.233166 0,3.66676 1.72294,6.449963 1.72293,2.783204 4.15271,4.68285 2.47396,1.899647 6.36161,4.28525 3.04827,1.899647 4.81538,3.180804 1.76712,1.281157 2.91574,2.915736 1.1928,1.590402 1.1928,3.578405 0,3.357515 -1.89964,5.69894 -1.85547,2.341425 -4.63868,3.490048 -2.7832,1.148624 -5.5664,1.148624 -3.09245,0 -5.25716,-1.281157 -2.16472,-1.325335 -3.13663,-3.534226 l -0.26507,-8.305433 -4.3736,-0.662667 -2.51814,11.839658 q 0.92774,1.811292 2.95992,3.313338 2.07635,1.457868 4.90374,2.297247 2.87155,0.883557 5.964,0.883557 5.65476,0 10.82357,-2.164714 5.21298,-2.208892 8.43797,-6.273252 3.26916,-4.108538 3.26916,-9.454056 0,-3.66676 -1.72294,-6.405785 -1.72294,-2.783203 -4.15272,-4.68285 -2.42978,-1.899647 -6.3616,-4.373605 -3.22498,-1.988003 -5.12463,-3.357515 -1.85547,-1.413691 -3.09245,-3.180804 -1.23698,-1.767113 -1.23698,-3.976005 0,-4.771206 2.65067,-7.156808 2.69485,-2.385603 6.75921,-2.385603 1.72293,0 3.1808,0.751023 1.50205,0.706845 2.47396,1.722935 0.97191,0.971913 1.14862,1.678758 l -0.13253,8.482143 4.28525,0.485956 z"
       style="font-style:italic;font-family:Neuton;-inkscape-font-specification:'Neuton Italic'"
       id="path1288" />
    <path
       d="m 210.56444,96.307986 q 2.82738,0 5.5664,-1.104446 2.7832,-1.104446 4.90374,-2.739026 2.16471,-1.678757 3.22498,-3.313337 l -1.14862,-1.988002 q -1.36951,1.192801 -3.93183,2.253069 -2.51813,1.060268 -5.78729,1.060268 -3.44587,0 -5.03628,-2.429781 -1.54622,-2.42978 -1.54622,-7.156808 0,-0.751023 0.0884,-2.518136 8.17289,0.220889 13.78348,-2.871559 5.61058,-3.092448 5.61058,-11.088636 0,-4.020182 -2.20889,-6.361607 -2.16471,-2.385603 -5.83147,-2.385603 -4.85956,0 -9.18899,3.66676 -4.28525,3.622582 -6.89174,9.7633 -2.56232,6.096541 -2.56232,13.120816 0,14.092728 10.95611,14.092728 z m 5.03627,-36.579244 q 1.85547,0 2.95991,1.767113 1.10445,1.722936 1.10445,4.196894 0,3.799294 -1.67876,5.875652 -1.63458,2.076358 -4.32943,2.827381 -2.65067,0.706845 -6.3616,0.751023 0.26506,-5.743118 1.54622,-9.188989 1.32533,-3.44587 3.09245,-4.815383 1.76711,-1.413691 3.66676,-1.413691 z"
       style="font-style:italic;font-family:Neuton;-inkscape-font-specification:'Neuton Italic'"
       id="path1290" />
    <path
       d="m 233.66944,41.748365 q 1.988,0 3.00409,0.574312 1.01609,0.530134 1.01609,2.164714 0,0.309245 -0.0883,1.01609 l -6.31743,40.908671 q -0.30925,2.253069 -0.30925,3.44587 0,3.048271 1.45787,4.461961 1.50205,1.413691 4.94792,1.413691 1.72293,0 3.40169,-0.441778 1.72294,-0.397601 2.82738,-0.971913 l 0.35342,-3.578404 q -1.89964,0.04418 -3.04827,-0.08836 -1.10444,-0.176711 -1.85547,-0.927734 -0.70684,-0.751023 -0.70684,-2.341425 0,-2.65067 1.01609,-9.100633 l 5.21298,-32.956661 q 0.26507,-1.811291 0.26507,-3.26916 0,-2.694847 -1.32533,-3.976005 -1.28116,-1.281157 -4.55032,-1.281157 -3.75512,0 -6.75921,1.457869 l -0.3976,3.534226 z"
       style="font-style:italic;font-family:Neuton;-inkscape-font-specification:'Neuton Italic'"
       id="path1292" />
    <path
       d="m 257.61383,79.652944 q -0.48596,3.04827 -0.48596,4.815383 0,2.871559 1.1928,4.020183 1.23698,1.104445 4.15272,1.104445 2.42978,0 4.63867,-1.457868 l 0.57431,2.341425 q -1.89964,2.473959 -4.46196,3.976005 -2.51813,1.457868 -5.52223,1.457868 -3.976,0 -5.78729,-2.164713 -1.81129,-2.164714 -1.81129,-6.538319 0,-1.899647 0.44177,-4.992095 l 3.26916,-21.072825 h -4.41778 l 0.44178,-4.241072 h 4.63867 l 1.50205,-9.630767 h 6.80338 l -1.54622,9.630767 h 9.71912 l -0.83938,4.241072 h -9.54241 z"
       style="font-style:italic;font-family:Neuton;-inkscape-font-specification:'Neuton Italic'"
       id="path1294" />
    <path
       d="m 277.75892,94.364161 q 1.01609,-0.706845 1.67876,-1.01609 0.70684,-0.309245 1.76711,-0.309245 1.28116,0 3.00409,0.61849 l 5.87565,2.120536 q 1.72294,0.618489 3.09245,0.927734 1.36951,0.353423 2.60649,0.353423 2.73903,0 5.08045,-1.899647 2.34143,-1.899647 4.46196,-6.538319 l -2.73902,-1.236979 q -1.28116,1.855469 -2.20889,2.606492 -0.88356,0.751023 -1.94383,0.751023 -0.61849,0 -1.36951,-0.176711 -0.75102,-0.220889 -1.988,-0.706846 l -4.28525,-1.767113 q -1.06027,-0.441778 -2.73903,-0.441778 -1.85547,0 -3.53422,0.3976 -1.67876,0.397601 -1.94383,0.441779 l -0.17671,-0.176712 22.66323,-28.936478 v -3.004093 h -26.81595 l -1.5904,12.369793 3.00409,0.574311 3.0041,-7.421875 h 14.97628 l -25.35807,31.940571 4.02018,1.811291 z"
       style="font-style:italic;font-family:Neuton;-inkscape-font-specification:'Neuton Italic'"
       id="path1296" />
    <path
       d="m 338.68015,39.539474 q -8.5705,0 -21.38207,1.943824 l -0.92774,3.357515 7.28935,1.325335 -6.80339,43.470985 -7.7753,2.076358 -0.97191,3.26916 h 26.19745 l 1.14863,-3.710938 -10.11673,-1.678758 7.20099,-46.21001 q 0.48596,-0.04418 2.03218,-0.132533 1.5904,-0.08836 2.73902,-0.08836 5.87566,0 8.79139,3.224982 2.95992,3.224981 2.95992,8.526321 0,7.156808 -3.97601,10.77939 -3.976,3.622582 -12.23726,3.622582 h -2.34142 l 0.30924,3.622582 q 3.18081,0.397601 5.03628,0.397601 6.00818,0 11.17699,-2.297247 5.21298,-2.341425 8.34961,-6.71503 3.13662,-4.373606 3.13662,-10.249257 0,-5.124628 -2.69484,-8.34961 -2.69485,-3.269159 -7.15681,-4.727028 -4.46196,-1.457868 -9.98419,-1.457868 z"
       style="font-style:italic;font-family:Neuton;-inkscape-font-specification:'Neuton Italic'"
       id="path1298" />
    <path
       d="m 394.07914,72.231068 q 0,-4.373605 -1.36951,-8.172898 -1.36951,-3.799294 -4.1969,-6.140719 -2.82738,-2.385603 -6.93592,-2.385603 -5.65476,0 -10.24925,3.401693 -4.5945,3.401693 -7.20099,8.9681 -2.60649,5.522229 -2.60649,11.751303 0,4.68285 1.45787,8.437965 1.45787,3.710938 4.32943,5.875652 2.91573,2.164713 6.98009,2.164713 5.65477,0 10.1609,-3.44587 4.55032,-3.445871 7.06846,-8.9681 2.56231,-5.522229 2.56231,-11.486236 z m -17.00846,18.598867 q -2.34143,0 -4.24108,-1.457869 -1.85546,-1.502046 -2.95991,-4.417783 -1.06027,-2.959914 -1.06027,-7.11263 0,-5.433873 1.14863,-9.277345 1.1928,-3.887649 3.26915,-5.831473 2.07636,-1.988003 4.81539,-1.988003 4.46196,0 6.5825,3.843472 2.12053,3.799293 2.12053,9.542411 0,7.819476 -2.51814,12.281437 -2.51813,4.417783 -7.1568,4.417783 z"
       style="font-style:italic;font-family:Neuton;-inkscape-font-specification:'Neuton Italic'"
       id="path1300" />
    <path
       d="m 411.52938,72.540313 q 1.54623,-3.180804 3.79929,-5.787296 2.29725,-2.65067 4.90374,-2.65067 1.19281,0 2.03218,0.309245 0.88356,0.309245 1.76712,1.192802 1.23698,-1.23698 1.85547,-2.783204 0.61849,-1.546224 0.61849,-3.04827 0,-1.811291 -1.14863,-3.004092 -1.10444,-1.192802 -3.09245,-1.192802 -2.12053,0 -4.10853,1.855469 -1.98801,1.855469 -3.57841,4.771206 -1.5904,2.871559 -2.60649,5.964007 h -0.48596 l 1.01609,-5.080451 q 0.30925,-1.722935 0.30925,-2.606492 0,-2.562314 -1.50205,-3.755115 -1.50204,-1.236979 -4.68285,-1.236979 -3.75511,0 -6.75921,1.457868 l -0.3976,3.534226 1.85547,-0.04418 q 1.94383,0 2.95992,0.574311 1.01609,0.574312 1.01609,2.297247 0,0.574312 -0.0442,0.883557 l -4.06436,30.791948 h 7.3777 z"
       style="font-style:italic;font-family:Neuton;-inkscape-font-specification:'Neuton Italic'"
       id="path1302" />
    <path
       d="m 436.22479,79.652944 q -0.48596,3.04827 -0.48596,4.815383 0,2.871559 1.1928,4.020183 1.23698,1.104445 4.15272,1.104445 2.42978,0 4.63867,-1.457868 l 0.57431,2.341425 q -1.89964,2.473959 -4.46196,3.976005 -2.51813,1.457868 -5.52222,1.457868 -3.97601,0 -5.7873,-2.164713 -1.81129,-2.164714 -1.81129,-6.538319 0,-1.899647 0.44178,-4.992095 l 3.26916,-21.072825 h -4.41779 l 0.44178,-4.241072 h 4.63867 l 1.50205,-9.630767 h 6.80339 l -1.54623,9.630767 h 9.71912 l -0.83937,4.241072 h -9.54242 z"
       style="font-style:italic;font-family:Neuton;-inkscape-font-specification:'Neuton Italic'"
       id="path1304" />
  </g>
</svg>
