<?xml version="1.0" encoding="UTF-8" standalone="no"?>
<svg
   width="449.5665"
   height="131.27995"
   viewBox="0 0 449.5665 131.27995"
   version="1.1"
   id="svg51"
   sodipodi:docname="Seltzport with icon-bw.inkscape.svg"
   inkscape:version="1.2.1 (9c6d41e410, 2022-07-14)"
   inkscape:export-filename="Seltzport with icon.svg"
   inkscape:export-xdpi="96"
   inkscape:export-ydpi="96"
   xmlns:inkscape="http://www.inkscape.org/namespaces/inkscape"
   xmlns:sodipodi="http://sodipodi.sourceforge.net/DTD/sodipodi-0.dtd"
   xmlns:xlink="http://www.w3.org/1999/xlink"
   xmlns="http://www.w3.org/2000/svg"
   xmlns:svg="http://www.w3.org/2000/svg">
  <defs
     id="defs55">
    <linearGradient
       inkscape:collect="always"
       id="linearGradient1855">
      <stop
         style="stop-color:#4d4d4d;stop-opacity:1;"
         offset="0"
         id="stop1851" />
      <stop
         style="stop-color:#000000;stop-opacity:1"
         offset="1"
         id="stop1853" />
    </linearGradient>
    <linearGradient
       inkscape:collect="always"
       id="linearGradient385">
      <stop
         style="stop-color:#050505;stop-opacity:1;"
         offset="0"
         id="stop381" />
      <stop
         style="stop-color:#606060;stop-opacity:1;"
         offset="1"
         id="stop383" />
    </linearGradient>
    <linearGradient
       inkscape:collect="always"
       xlink:href="#linearGradient385"
       id="linearGradient387"
       x1="106.19444"
       y1="312.08685"
       x2="109.99562"
       y2="135.53096"
       gradientUnits="userSpaceOnUse"
       gradientTransform="matrix(0.80081634,0,0,0.80081634,-10.44118,-120.51743)" />
    <linearGradient
       inkscape:collect="always"
       xlink:href="#linearGradient1855"
       id="linearGradient1857"
       x1="355.76486"
       y1="189.61481"
       x2="352.25446"
       y2="280.18088"
       gradientUnits="userSpaceOnUse"
       gradientTransform="matrix(1.0643403,0,0,1.0643403,-64.531268,-176.6896)" />
  </defs>
  <sodipodi:namedview
     id="namedview53"
     pagecolor="#ffffff"
     bordercolor="#000000"
     borderopacity="0.25"
     inkscape:showpageshadow="2"
     inkscape:pageopacity="0.0"
     inkscape:pagecheckerboard="0"
     inkscape:deskcolor="#d1d1d1"
     showgrid="false"
     inkscape:zoom="1.9915817"
     inkscape:cx="129.29422"
     inkscape:cy="44.688099"
     inkscape:window-width="1920"
     inkscape:window-height="1011"
     inkscape:window-x="0"
     inkscape:window-y="0"
     inkscape:window-maximized="1"
     inkscape:current-layer="svg51" />
  <path
     fill="var(--ci-primary-color, currentColor)"
     d="M 73.594595,2.4243088e-4 A 73.595605,65.7158 0 0 0 21.555152,112.18368 73.595605,65.7158 0 0 0 125.63435,19.247862 73.114604,65.2863 0 0 0 73.594595,2.4243088e-4 Z M 70.549895,8.8544324 39.564393,56.983502 22.961557,31.166512 A 63.703716,56.883026 0 0 1 70.550815,8.8544324 Z m 17.35693,34.8859496 14.120035,21.80814 -14.208605,22.18657 H 59.339565 L 45.235838,65.804472 59.441055,43.740382 Z m -70.911648,-4.20521 30.996881,48.19992 H 14.804839 a 63.692644,56.87314 0 0 1 2.190338,-48.19992 z m 3.011176,56.98711 H 82.192025 L 65.740195,122.21048 A 63.841496,57.006054 0 0 1 20.006353,96.522832 Z M 76.846275,122.56941 107.72721,74.351102 124.38633,100.08049 A 63.713249,56.891539 0 0 1 76.846275,122.56996 Z M 130.31857,91.684902 99.275555,43.740382 h 33.129095 a 63.702793,56.882202 0 0 1 -2.08608,47.94452 z M 65.099885,34.952652 81.653505,9.2411024 A 63.849185,57.012919 0 0 1 127.21544,34.952652 Z"
     class="ci-primary"
     id="path49"
     style="fill:url(#linearGradient387);fill-opacity:1;stroke-width:0.290615" />
  <text
     xml:space="preserve"
     style="font-size:90.4762px;fill:url(#linearGradient1857);fill-opacity:1;stroke-width:1.41369"
     x="156.84419"
     y="94.982651"
     id="text269"><tspan
       id="tspan267"
       x="156.84419"
       y="94.982651"
       sodipodi:role="line"
       style="font-style:italic;font-variant:normal;font-weight:normal;font-stretch:normal;font-size:90.4762px;font-family:Neuton;-inkscape-font-specification:'Neuton Italic';fill:url(#linearGradient1857);fill-opacity:1;stroke-width:1.41369">SeltzPort</tspan></text>
</svg>
