<svg xmlns="http://www.w3.org/2000/svg" version="1.1" xmlns:xlink="http://www.w3.org/1999/xlink" xmlns:svgjs="http://svgjs.dev/svgjs" width="1000" height="1000" viewBox="0 0 1000 1000"><rect width="1000" height="1000" fill="#ffffff"></rect><g transform="matrix(0.7,0,0,0.7,150.00040338463458,106.25)"><svg viewBox="0 0 320 360" data-background-color="#ffffff" preserveAspectRatio="xMidYMid meet" height="1125" width="1000" xmlns="http://www.w3.org/2000/svg" xmlns:xlink="http://www.w3.org/1999/xlink"><defs></defs><g id="tight-bounds" transform="matrix(1,0,0,1,0.00018440440442191175,0)"><svg viewBox="0 0 320 360" height="360" width="320"><g><svg></svg></g><g><svg viewBox="0 0 320 360" height="360" width="320"><g><path d="M294.684 112.125c-8.775-10.699-25.381-16.201-43-22.006-7.56-2.498-15.357-5.097-22.985-8.235-7.695-3.173-15.256-7.257-22.613-11.172-14.952-8.033-30.41-16.336-46.105-16.336-15.661 0-31.119 8.303-46.071 16.336-7.358 3.949-14.952 8.033-22.648 11.205-7.594 3.139-15.425 5.704-22.985 8.236-17.618 5.839-34.224 11.341-42.999 22.006-11.712 14.277-11.442 35.439-11.172 57.817 0.034 3.375 0.068 6.717 0.067 10.024 0 3.308-0.034 6.649-0.101 10.024-0.27 22.411-0.54 43.54 11.172 57.851 8.775 10.666 25.381 16.167 42.966 22.006 7.56 2.498 15.357 5.097 23.019 8.235 7.695 3.173 15.256 7.223 22.579 11.172 14.986 8.067 30.444 16.37 46.105 16.37 15.695 0 31.153-8.303 46.105-16.336 7.358-3.949 14.918-8.033 22.614-11.172 7.594-3.139 15.357-5.704 22.884-8.202 17.72-5.873 34.326-11.374 43.101-22.039 11.712-14.277 11.442-35.439 11.171-57.817-0.034-3.409-0.101-6.75-0.101-10.058 0-3.308 0.034-6.649 0.101-9.991 0.371-22.479 0.641-43.641-11.104-57.918zM305.552 103.215c-15.728-19.171-45.801-23.727-71.486-34.326-22.985-9.45-46.375-28.588-74.051-28.587-27.676 0-51.066 19.137-74.052 28.587-25.719 10.598-55.758 15.155-71.486 34.326-17.078 20.791-14.311 50.121-14.311 76.785 0 26.63-2.768 55.994 14.277 76.785 15.728 19.171 45.801 23.727 71.487 34.326 22.985 9.484 46.375 28.588 74.051 28.587 27.676 0 51.066-19.103 74.051-28.587 25.719-10.598 55.758-15.155 71.486-34.326 17.045-20.791 14.277-50.121 14.277-76.785 0.068-26.664 2.835-55.994-14.243-76.785zM309.872 189.923c0.304 23.221 0.574 45.059-12.083 60.483-9.518 11.577-26.664 17.281-44.822 23.289-7.56 2.498-15.29 5.063-22.715 8.134-7.493 3.071-14.952 7.088-22.175 10.969-15.458 8.303-31.355 16.842-48.062 16.842-16.707 0-32.604-8.539-47.995-16.808-7.257-3.915-14.75-7.932-22.243-11.003-7.527-3.105-15.256-5.67-22.748-8.134-18.192-6.008-35.338-11.712-44.823-23.289-12.623-15.391-12.353-37.262-12.083-60.415 0.034-3.375 0.101-6.683 0.101-9.991 0-3.308-0.034-6.615-0.067-9.991-0.304-23.154-0.574-45.025 12.083-60.415 9.518-11.577 26.664-17.247 44.822-23.289 7.527-2.498 15.256-5.063 22.749-8.134 7.493-3.105 14.986-7.122 22.242-11.003 15.391-8.269 31.322-16.842 47.995-16.842 16.673 0 32.604 8.539 47.995 16.808 7.257 3.915 14.75 7.932 22.243 11.003 7.493 3.105 15.256 5.637 22.715 8.134 18.158 6.008 35.338 11.712 44.822 23.289 12.657 15.425 12.387 37.262 12.083 60.416-0.034 3.409-0.101 6.717-0.101 9.99 0 3.308 0.034 6.615 0.067 9.957z" fill="#262626" data-fill-palette-color="tertiary"></path></g><g transform="matrix(1,0,0,1,64,112.25096606281359)"><svg viewBox="0 0 192 135.49806787437282" height="135.49806787437282" width="192"><g><svg viewBox="0 0 192 135.49806787437282" height="135.49806787437282" width="192"><g><svg viewBox="0 0 192 135.49806787437282" height="135.49806787437282" width="192"><g><svg viewBox="0 0 192 59.62311837948337" height="59.62311837948337" width="192"><g><svg viewBox="0 0 192 59.62311837948337" height="59.62311837948337" width="192"><g><svg viewBox="0 0 192 59.62311837948337" height="59.62311837948337" width="192"><g transform="matrix(1,0,0,1,0,0)"><svg width="192" viewBox="1.6100000143051147 -31.709999084472656 131.36000061035156 40.790000915527344" height="59.62311837948337" data-palette-color="#ffffff"><path d="M9.81 0.59Q12.62 0.59 15.12-0.57 17.63-1.73 19.15-3.86 20.68-5.98 20.68-8.72L20.68-8.72Q20.68-10.67 19.68-12.11 18.68-13.55 17.24-14.54 15.8-15.53 13.35-16.82L13.35-16.82Q11.01-18.09 9.66-18.99 8.3-19.9 7.36-21.22 6.42-22.53 6.42-24.29L6.42-24.29Q6.42-26.59 7.67-27.76 8.91-28.93 10.86-28.93L10.86-28.93Q11.77-28.93 12.65-28.55 13.53-28.17 14.15-27.62 14.77-27.08 15.01-26.61L15.01-26.61 15.63-21.95 18.04-21.66Q18.12-22.71 18.31-25.05 18.51-27.39 18.58-28.54L18.58-28.54Q15.65-30.98 11.69-30.98L11.69-30.98Q9.23-30.98 7.06-29.96 4.88-28.93 3.54-26.98 2.2-25.02 2.2-22.36L2.2-22.36Q2.2-20.07 3.31-18.38 4.42-16.7 5.99-15.61 7.57-14.53 10.13-13.16L10.13-13.16Q12.21-12.04 13.39-11.25 14.58-10.47 15.38-9.41 16.19-8.35 16.19-7.01L16.19-7.01Q16.19-5.3 15.32-4.15 14.45-3 13.12-2.44 11.79-1.88 10.4-1.88L10.4-1.88Q8.79-1.88 7.43-2.59 6.08-3.3 5.37-4.32L5.37-4.32 4.42-8.91 1.93-9.25 1.61-2.25Q2.86-1.03 5.07-0.22 7.28 0.59 9.81 0.59L9.81 0.59ZM31.54 0.73Q33.93 0.73 36.02-0.13 38.11-1 39.57-2.54L39.57-2.54 39.06-3.83Q37.86-3.2 36.96-2.91 36.06-2.61 35.37-2.55 34.69-2.49 33.52-2.49L33.52-2.49Q31.37-2.49 29.87-3.72 28.37-4.96 27.59-6.88 26.8-8.81 26.71-10.86L26.71-10.86 38.52-11.01Q38.67-11.65 38.79-12.63 38.91-13.62 38.91-14.18L38.91-14.18Q38.91-16.67 38.05-18.42 37.18-20.17 35.69-21.06 34.2-21.95 32.39-21.95L32.39-21.95Q29.95-21.95 27.63-20.56 25.31-19.17 23.84-16.55 22.36-13.94 22.36-10.45L22.36-10.45Q22.36-6.91 23.65-4.37 24.95-1.83 27.06-0.55 29.17 0.73 31.54 0.73L31.54 0.73ZM31.2-19.56Q34.57-19.56 34.57-15.01L34.57-15.01Q34.57-14.65 34.53-14.12 34.49-13.6 34.42-13.33L34.42-13.33 26.76-12.77Q26.88-15.01 27.55-16.54 28.22-18.07 29.2-18.81 30.17-19.56 31.2-19.56L31.2-19.56ZM40.89 0L52.56 0 52.85-1.95 48.97-2.83 48.97-31.13 48.36-31.71 41.33-31.18 41.04-29.32 44.89-28 44.89-2.83 41.16-1.93 40.89 0ZM64.79 9.08L65.08 7.13 61.27 6.27 61.27-16.26Q62.25-17.29 63.55-18.02 64.86-18.75 66.28-18.75L66.28-18.75Q68.6-18.75 69.77-16.52 70.94-14.28 70.94-9.91L70.94-9.91Q70.94-6.37 69.62-4.27 68.3-2.17 65.84-2.17L65.84-2.17Q64.4-2.17 63.66-2.28 62.93-2.39 62.1-2.71L62.1-2.71 62.25 0.24Q63.47 0.46 64.54 0.46L64.54 0.46Q67.64 0.46 70.12-1.05 72.6-2.56 74-5.27 75.41-7.98 75.41-11.4L75.41-11.4Q75.41-14.99 74.46-17.35 73.5-19.7 71.84-20.83 70.18-21.95 68.01-21.95L68.01-21.95Q65.86-21.95 64.15-20.75 62.44-19.56 61.27-17.92L61.27-17.92 61.1-17.92 61.44-21.07 60.93-21.53 53.83-20.63 53.53-18.75 57.29-17.63 57.29 6.25 53.56 7.18 53.41 9.08 64.79 9.08ZM88.03 0.66Q90.86 0.66 93.2-0.78 95.55-2.22 96.9-4.83 98.26-7.45 98.26-10.77L98.26-10.77Q98.26-14.11 97.1-16.66 95.94-19.21 93.75-20.63 91.57-22.05 88.61-22.05L88.61-22.05Q85.83-22.05 83.4-20.65 80.97-19.26 79.48-16.61 77.99-13.96 77.99-10.4L77.99-10.4Q77.99-7.23 79.18-4.72 80.36-2.22 82.62-0.78 84.88 0.66 88.03 0.66L88.03 0.66ZM87.59-19.48Q89.76-19.48 91.19-17.88 92.62-16.28 93.26-13.84 93.91-11.4 93.91-8.76L93.91-8.76Q93.91-6.96 93.35-5.35 92.79-3.74 91.64-2.72 90.49-1.71 88.86-1.71L88.86-1.71Q86.59-1.71 85.12-3.2 83.66-4.69 83-7.06 82.34-9.42 82.34-12.13L82.34-12.13Q82.34-14.14 82.9-15.81 83.46-17.48 84.65-18.48 85.83-19.48 87.59-19.48L87.59-19.48ZM113.98 0L114.22-2.12 108.53-2.95 108.53-12.3Q108.78-14.04 109.5-15.23 110.22-16.43 111.1-17.03 111.97-17.63 112.71-17.63L112.71-17.63Q113.42-17.63 114.2-17.37 114.98-17.11 115.69-16.67L115.69-16.67Q117.08-17.85 117.08-19.38L117.08-19.38Q117.08-20.48 116.32-21.3 115.56-22.12 114.37-22.12L114.37-22.12Q113.27-22.12 112.15-21.37 111.02-20.63 110.02-19.14 109.02-17.65 108.39-15.53L108.39-15.53 107.92-15.53 108.41-21.14 107.85-21.73 100.84-20.83 100.5-18.97 104.48-17.77 104.48-2.78 100.74-1.81 100.5 0 113.98 0ZM121.25-18.63L121.15-6.35Q121.13-2.54 122.51-0.99 123.89 0.56 126.35 0.56L126.35 0.56Q128.4 0.56 130.11-0.39 131.82-1.34 132.97-3.03L132.97-3.03 132.46-4.35Q132.46-4.32 131.88-3.96 131.31-3.59 130.53-3.28 129.75-2.98 128.94-2.98L128.94-2.98Q127.65-2.98 126.86-3.42 126.08-3.86 125.72-4.91 125.35-5.96 125.35-7.79L125.35-7.79 125.42-18.58 132.16-18.58 132.38-20.73 125.47-20.73 125.47-26.54 124.18-26.54Q122.86-24.73 121.25-22.95 119.64-21.17 118.15-19.95L118.15-19.95 118.15-18.63 121.25-18.63Z" opacity="1" transform="matrix(1,0,0,1,0,0)" fill="#ffffff" class="undefined-text-0" data-fill-palette-color="quaternary" id="text-0"></path></svg></g></svg></g></svg></g></svg></g><g transform="matrix(1,0,0,1,65.10031889983273,73.6987056740383)"><svg viewBox="0 0 61.79936220033453 61.79936220033453" height="61.79936220033453" width="61.79936220033453"><g><svg xmlns="http://www.w3.org/2000/svg" xmlns:xlink="http://www.w3.org/1999/xlink" version="1.1" x="0" y="0" viewBox="10.5 10.5 79 79" enable-background="new 0 0 100 100" xml:space="preserve" height="61.79936220033453" width="61.79936220033453" class="icon-icon-0" data-fill-palette-color="quaternary" id="icon-0"><path d="M50 10.5c-21.8 0-39.5 17.7-39.5 39.5S28.2 89.5 50 89.5 89.5 71.8 89.5 50 71.8 10.5 50 10.5zM76.6 29.5L68 44.2l-16-27.7C62 17.1 70.8 22.1 76.6 29.5zM42.8 62.6L35.5 50l7.3-12.6h14.5l7.3 12.7-7.3 12.5H42.8zM45.4 16.7l8.5 14.7H22C27.2 23.6 35.6 18.1 45.4 16.7zM18.9 37.4h17L20 65c-2.3-4.5-3.5-9.6-3.5-15C16.4 45.5 17.3 41.3 18.9 37.4zM23.5 70.6L32 55.9l16.1 27.6C38.2 83 29.3 78 23.5 70.6zM54.8 83.2l-8.6-14.7H78C72.8 76.3 64.5 81.8 54.8 83.2zM81.1 62.6h-17l16-27.4c2.2 4.5 3.4 9.5 3.4 14.8C83.6 54.5 82.7 58.7 81.1 62.6z" fill="#ffffff" data-fill-palette-color="quaternary"></path></svg></g></svg></g><g></g></svg></g></svg></g></svg></g></svg></g></svg><rect width="320" height="360" fill="none" stroke="none" visibility="hidden"></rect></g></svg></g></svg>